ffmpeg started on 2016-11-30 at 16:45:23
Report written to "Output/x264/results/ffmpeg/old_town_cross_2160p50fast4500k.log"
Command line:
Tools/ffmpeg/ffmpeg -benchmark -y -i Input/y4m/old_town_cross_2160p50.y4m -c:v libx264 -preset fast -b:v 4500k -an Output/x264/encoded/old_town_cross_2160p50fast4500k.mkv
ffmpeg version N-82227-gdb23fde Copyright (c) 2000-2016 the FFmpeg developers
  built with gcc 5.4.0 (Ubuntu 5.4.0-6ubuntu1~16.04.2) 20160609
  configuration: --prefix=/home/jaroslav/ffmpeg_build --pkg-config-flags=--static --extra-cflags=-I/home/jaroslav/ffmpeg_build/include --extra-ldflags=-L/home/jaroslav/ffmpeg_build/lib --bindir=/home/jaroslav/bin --enable-gpl --enable-libass --enable-libfdk-aac --enable-libfreetype --enable-libmp3lame --enable-libopus --enable-libtheora --enable-libvorbis --enable-libvpx --enable-libx264 --enable-libx265 --enable-nvenc --enable-libmfx --enable-libxvid --enable-libgsm --enable-libopencore-amrnb --enable-version3 --enable-nonfree
  libavutil      55. 35.100 / 55. 35.100
  libavcodec     57. 66.101 / 57. 66.101
  libavformat    57. 57.100 / 57. 57.100
  libavdevice    57.  2.100 / 57.  2.100
  libavfilter     6. 66.100 /  6. 66.100
  libswscale      4.  3.100 /  4.  3.100
  libswresample   2.  4.100 /  2.  4.100
  libpostproc    54.  2.100 / 54.  2.100
Input #0, yuv4mpegpipe, from 'Input/y4m/old_town_cross_2160p50.y4m':
  Duration: 00:00:10.00, start: 0.000000, bitrate: 4976642 kb/s
    Stream #0:0: Video: rawvideo (I420 / 0x30323449), yuv420p(progressive), 3840x2160, SAR 1:1 DAR 16:9, 50 fps, 50 tbr, 50 tbn, 50 tbc
[libx264 @ 0x42a7120] using SAR=1/1
[libx264 @ 0x42a7120] using cpu capabilities: MMX2 SSE2Fast SSSE3 SSE4.2 AVX FMA3 AVX2 LZCNT BMI2
[libx264 @ 0x42a7120] profile High, level 5.2
[libx264 @ 0x42a7120] 264 - core 148 - H.264/MPEG-4 AVC codec - Copyleft 2003-2016 - http://www.videolan.org/x264.html - options: cabac=1 ref=2 deblock=1:0:0 analyse=0x3:0x113 me=hex subme=6 psy=1 psy_rd=1.00:0.00 mixed_ref=1 me_range=16 chroma_me=1 trellis=1 8x8dct=1 cqm=0 deadzone=21,11 fast_pskip=1 chroma_qp_offset=-2 threads=6 lookahead_threads=1 sliced_threads=0 nr=0 decimate=1 interlaced=0 bluray_compat=0 constrained_intra=0 bframes=3 b_pyramid=2 b_adapt=1 b_bias=0 direct=1 weightb=1 open_gop=0 weightp=1 keyint=250 keyint_min=25 scenecut=40 intra_refresh=0 rc_lookahead=30 rc=abr mbtree=1 bitrate=4500 ratetol=1.0 qcomp=0.60 qpmin=0 qpmax=69 qpstep=4 ip_ratio=1.40 aq=1:1.00
Output #0, matroska, to 'Output/x264/encoded/old_town_cross_2160p50fast4500k.mkv':
  Metadata:
    encoder         : Lavf57.57.100
    Stream #0:0: Video: h264 (libx264) (H264 / 0x34363248), yuv420p, 3840x2160 [SAR 1:1 DAR 16:9], q=-1--1, 4500 kb/s, 50 fps, 1k tbn, 50 tbc
    Metadata:
      encoder         : Lavc57.66.101 libx264
    Side data:
      cpb: bitrate max/min/avg: 0/0/4500000 buffer size: 0 vbv_delay: -1
Stream mapping:
  Stream #0:0 -> #0:0 (rawvideo (native) -> h264 (libx264))
Press [q] to stop, [?] for help
frame=   37 fps= 20 q=0.0 size=       0kB time=00:00:00.00 bitrate=N/A speed=   0x    frame=   46 fps= 19 q=45.0 size=       1kB time=00:00:00.06 bitrate=  96.3kbits/s speed=0.0249x    frame=   57 fps= 19 q=41.0 size=       1kB time=00:00:00.28 bitrate=  20.9kbits/s speed=0.095x    frame=   66 fps= 18 q=40.0 size=       1kB time=00:00:00.46 bitrate=  12.7kbits/s speed=0.126x    frame=   75 fps= 18 q=40.0 size=       1kB time=00:00:00.64 bitrate=   9.2kbits/s speed=0.154x    frame=   85 fps= 18 q=39.0 size=       1kB time=00:00:00.84 bitrate=   7.0kbits/s speed=0.181x    frame=   94 fps= 18 q=39.0 size=       1kB time=00:00:01.02 bitrate=   5.8kbits/s speed=0.191x    frame=  104 fps= 18 q=38.0 size=       1kB time=00:00:01.22 bitrate=   4.8kbits/s speed=0.208x    frame=  114 fps= 17 q=38.0 size=       1kB time=00:00:01.42 bitrate=   4.1kbits/s speed=0.216x    frame=  125 fps= 18 q=38.0 size=       1kB time=00:00:01.64 bitrate=   3.6kbits/s speed=0.232x    frame=  134 fps= 17 q=38.0 size=       1kB time=00:00:01.82 bitrate=   3.2kbits/s speed=0.234x    frame=  144 fps= 17 q=38.0 size=       1kB time=00:00:02.02 bitrate=   2.9kbits/s speed=0.244x    frame=  154 fps= 17 q=38.0 size=       1kB time=00:00:02.22 bitrate=   2.6kbits/s speed=0.247x    frame=  164 fps= 17 q=38.0 size=       1kB time=00:00:02.42 bitrate=   2.4kbits/s speed=0.255x    frame=  174 fps= 17 q=38.0 size=       1kB time=00:00:02.62 bitrate=   2.2kbits/s speed=0.257x    frame=  185 fps= 17 q=38.0 size=       1kB time=00:00:02.84 bitrate=   2.1kbits/s speed=0.265x    frame=  193 fps= 17 q=38.0 size=       1kB time=00:00:03.00 bitrate=   2.0kbits/s speed=0.267x    frame=  202 fps= 17 q=38.0 size=       1kB time=00:00:03.18 bitrate=   1.8kbits/s speed=0.267x    frame=  212 fps= 17 q=38.0 size=       1kB time=00:00:03.38 bitrate=   1.7kbits/s speed=0.273x    frame=  222 fps= 17 q=38.0 size=       1kB time=00:00:03.58 bitrate=   1.6kbits/s speed=0.273x    frame=  232 fps= 17 q=38.0 size=       1kB time=00:00:03.78 bitrate=   1.6kbits/s speed=0.278x    frame=  242 fps= 17 q=38.0 size=       1kB time=00:00:03.98 bitrate=   1.5kbits/s speed=0.278x    frame=  251 fps= 17 q=38.0 size=       1kB time=00:00:04.16 bitrate=   1.4kbits/s speed=0.281x    frame=  252 fps= 16 q=38.0 size=       1kB time=00:00:04.18 bitrate=   1.4kbits/s speed=0.267x    frame=  254 fps= 16 q=38.0 size=       1kB time=00:00:04.22 bitrate=   1.4kbits/s speed=0.259x    frame=  256 fps= 15 q=38.0 size=       1kB time=00:00:04.26 bitrate=   1.4kbits/s speed=0.252x    frame=  261 fps= 15 q=38.0 size=       1kB time=00:00:04.36 bitrate=   1.3kbits/s speed=0.249x    frame=  266 fps= 15 q=38.0 size=       1kB time=00:00:04.46 bitrate=   1.3kbits/s speed=0.247x    frame=  271 fps= 15 q=38.0 size=       1kB time=00:00:04.56 bitrate=   1.3kbits/s speed=0.244x    frame=  276 fps= 14 q=38.0 size=       1kB time=00:00:04.66 bitrate=   1.3kbits/s speed=0.242x    frame=  281 fps= 14 q=38.0 size=       1kB time=00:00:04.76 bitrate=   1.2kbits/s speed=0.24x    frame=  286 fps= 14 q=38.0 size=       1kB time=00:00:04.86 bitrate=   1.2kbits/s speed=0.238x    frame=  295 fps= 14 q=38.0 size=    2531kB time=00:00:05.04 bitrate=4112.9kbits/s speed=0.24x    frame=  305 fps= 14 q=38.0 size=    2531kB time=00:00:05.24 bitrate=3956.0kbits/s speed=0.244x    frame=  315 fps= 14 q=38.0 size=    2531kB time=00:00:05.44 bitrate=3810.6kbits/s speed=0.245x    frame=  324 fps= 14 q=38.0 size=    2531kB time=00:00:05.62 bitrate=3688.5kbits/s speed=0.248x    frame=  334 fps= 14 q=38.0 size=    2531kB time=00:00:05.82 bitrate=3561.8kbits/s speed=0.251x    frame=  343 fps= 14 q=38.0 size=    2531kB time=00:00:06.00 bitrate=3455.0kbits/s speed=0.251x    frame=  353 fps= 14 q=38.0 size=    2531kB time=00:00:06.20 bitrate=3343.5kbits/s speed=0.254x    frame=  363 fps= 14 q=38.0 size=    2531kB time=00:00:06.40 bitrate=3239.1kbits/s speed=0.255x    frame=  372 fps= 15 q=38.0 size=    2531kB time=00:00:06.58 bitrate=3150.5kbits/s speed=0.257x    frame=  383 fps= 15 q=38.0 size=    2531kB time=00:00:06.80 bitrate=3048.6kbits/s speed=0.258x    frame=  393 fps= 15 q=38.0 size=    2531kB time=00:00:07.00 bitrate=2961.5kbits/s speed=0.261x    frame=  402 fps= 15 q=38.0 size=    2531kB time=00:00:07.18 bitrate=2887.2kbits/s speed=0.263x    frame=  411 fps= 15 q=38.0 size=    2531kB time=00:00:07.36 bitrate=2816.6kbits/s speed=0.263x    frame=  422 fps= 15 q=38.0 size=    2531kB time=00:00:07.58 bitrate=2734.9kbits/s speed=0.266x    frame=  431 fps= 15 q=38.0 size=    2531kB time=00:00:07.76 bitrate=2671.5kbits/s speed=0.265x    frame=  441 fps= 15 q=38.0 size=    2531kB time=00:00:07.96 bitrate=2604.4kbits/s speed=0.268x    frame=  451 fps= 15 q=38.0 size=    2531kB time=00:00:08.16 bitrate=2540.5kbits/s speed=0.268x    frame=  461 fps= 15 q=38.0 size=    2531kB time=00:00:08.36 bitrate=2479.8kbits/s speed=0.27x    frame=  470 fps= 15 q=38.0 size=    2531kB time=00:00:08.54 bitrate=2427.5kbits/s speed=0.272x    frame=  479 fps= 15 q=38.0 size=    2531kB time=00:00:08.72 bitrate=2377.4kbits/s speed=0.271x    frame=  489 fps= 15 q=38.0 size=    2531kB time=00:00:08.92 bitrate=2324.1kbits/s speed=0.273x    frame=  493 fps= 15 q=38.0 size=    2531kB time=00:00:09.00 bitrate=2303.4kbits/s speed=0.267x    frame=  495 fps= 14 q=38.0 size=    2531kB time=00:00:09.04 bitrate=2293.3kbits/s speed=0.263x    frame=  497 fps= 14 q=38.0 size=    2531kB time=00:00:09.08 bitrate=2283.2kbits/s speed=0.26x    frame=  500 fps= 13 q=-1.0 Lsize=    5490kB time=00:00:09.94 bitrate=4523.9kbits/s speed=0.268x    
video:5485kB audio:0kB subtitle:0kB other streams:0kB global headers:0kB muxing overhead: 0.079116%
bench: utime=111.288s
bench: maxrss=1609428kB
[libx264 @ 0x42a7120] frame I:3     Avg QP:34.83  size:144740
[libx264 @ 0x42a7120] frame P:183   Avg QP:36.36  size: 14113
[libx264 @ 0x42a7120] frame B:314   Avg QP:38.36  size:  8279
[libx264 @ 0x42a7120] consecutive B-frames: 16.0%  0.8%  0.0% 83.2%
[libx264 @ 0x42a7120] mb I  I16..4: 16.8% 71.6% 11.6%
[libx264 @ 0x42a7120] mb P  I16..4:  0.2%  0.1%  0.0%  P16..4: 16.7%  0.9%  0.7%  0.0%  0.0%    skip:81.5%
[libx264 @ 0x42a7120] mb B  I16..4:  0.2%  0.1%  0.0%  B16..8: 11.0%  0.2%  0.0%  direct: 5.2%  skip:83.2%  L0:32.7% L1:67.1% BI: 0.2%
[libx264 @ 0x42a7120] final ratefactor: 30.36
[libx264 @ 0x42a7120] 8x8 transform intra:58.1% inter:93.3%
[libx264 @ 0x42a7120] coded y,uvDC,uvAC intra: 28.7% 34.5% 11.5% inter: 2.2% 2.2% 0.0%
[libx264 @ 0x42a7120] i16 v,h,dc,p: 46% 39%  7%  7%
[libx264 @ 0x42a7120] i8 v,h,dc,ddl,ddr,vr,hd,vl,hu: 20% 19% 39%  3%  3%  3%  6%  2%  5%
[libx264 @ 0x42a7120] i4 v,h,dc,ddl,ddr,vr,hd,vl,hu: 26% 33%  9%  5%  6%  5%  8%  3%  4%
[libx264 @ 0x42a7120] i8c dc,h,v,p: 77% 10% 12%  1%
[libx264 @ 0x42a7120] Weighted P-Frames: Y:0.5% UV:0.0%
[libx264 @ 0x42a7120] ref P L0: 82.7% 17.3%
[libx264 @ 0x42a7120] ref B L0: 91.4%  8.6%
[libx264 @ 0x42a7120] ref B L1: 96.8%  3.2%
[libx264 @ 0x42a7120] kb/s:4493.13
